<svg xmlns:x="http://ns.adobe.com/Extensibility/1.0/" xmlns:i="http://ns.adobe.com/AdobeIllustrator/10.0/"
  xmlns:graph="http://ns.adobe.com/Graphs/1.0/" xmlns="http://www.w3.org/2000/svg"
  xmlns:xlink="http://www.w3.org/1999/xlink" version="1.1" x="0px" y="0px" viewBox="0 0 100 125" xml:space="preserve"
  style="&#10;">
  <g xmlns:i="http://ns.adobe.com/AdobeIllustrator/10.0/" i:extraneous="self">
    <g>
      <path
      fill="#696f79"
        d="M96.2,46.5c-1.7-1.7-4.4-1.7-6,0L86,50.7V50c0-19.9-16.2-36-36-36c-9.5,0-18.5,3.7-25.3,10.4c-1.7,1.7-1.7,4.4,0,6     c1.7,1.7,4.4,1.7,6,0c5.2-5.1,12-7.9,19.3-7.9c15.1,0,27.5,12.3,27.5,27.5v0.7l-4.2-4.2c-1.7-1.7-4.4-1.7-6,0s-1.7,4.4,0,6     L78.7,64c0.8,0.8,1.9,1.3,3,1.3s2.2-0.4,3-1.3l11.5-11.5C97.9,50.8,97.9,48.1,96.2,46.5z" />
      <path
      fill="#696f79"
        d="M69.3,69.5c-5.2,5.1-12,7.9-19.3,7.9c-15.1,0-27.5-12.3-27.5-27.5v-0.7l4.2,4.2c0.8,0.8,1.9,1.3,3,1.3     c1.1,0,2.2-0.4,3-1.3c1.7-1.7,1.7-4.4,0-6L21.3,36c-1.7-1.7-4.4-1.7-6,0L3.8,47.5c-1.7,1.7-1.7,4.4,0,6s4.4,1.7,6,0l4.2-4.2V50     c0,19.9,16.2,36,36,36c9.5,0,18.5-3.7,25.3-10.4c1.7-1.7,1.7-4.4,0-6C73.7,67.9,71,67.9,69.3,69.5z" />
    </g>
  </g>
</svg>